<svg width="24" height="27" viewBox="0 0 24 27" fill="none" xmlns="http://www.w3.org/2000/svg">
<path d="M4.28797 6.03835C5.98026 4.30756 8.21109 3.1921 10.5957 2.8846C10.788 3.5 11.3265 4 12.0188 4C12.8265 4 13.5188 3.34619 13.5188 2.5C13.5188 1.65381 12.865 1 12.0188 1C11.2496 1 10.6342 1.5769 10.5573 2.30771C8.01874 2.61542 5.63416 3.80771 3.86499 5.61542L4.28797 6.03835ZM12.0188 1.5769C12.5188 1.5769 12.9419 2 12.9419 2.5C12.9419 3 12.5188 3.4231 12.0188 3.4231C11.5188 3.4231 11.0957 3 11.0957 2.5C11.0957 1.9615 11.5188 1.5769 12.0188 1.5769Z" fill="white" stroke="white" stroke-width="0.5"/>
<path d="M1.09569 16.8083L1.63419 16.6545C1.32648 15.6545 1.21108 14.6545 1.21108 13.6159C1.21108 12.1928 1.48029 10.7697 2.01879 9.46216C2.13419 9.50066 2.288 9.50066 2.40339 9.50066C2.94189 9.50066 3.44189 9.23145 3.7111 8.76987C3.90341 8.42368 3.98031 8.03907 3.86491 7.65447C3.74951 7.26987 3.51872 6.96218 3.17262 6.73136C2.94183 6.61597 2.67262 6.53906 2.40341 6.53906C1.86491 6.53906 1.36491 6.80827 1.0957 7.26985C0.711099 7.92367 0.903401 8.73135 1.48031 9.19296C0.903412 10.5776 0.595703 12.0775 0.595703 13.6161C0.634197 14.6544 0.788005 15.7698 1.0957 16.8084L1.09569 16.8083ZM1.63419 7.53889C1.78799 7.26968 2.09569 7.07739 2.44189 7.07739C2.5957 7.07739 2.7496 7.11588 2.90339 7.19279C3.0957 7.30818 3.24958 7.50049 3.3265 7.76968C3.4034 8.00047 3.36499 8.26968 3.24959 8.46197C2.9803 8.88508 2.40341 9.03887 1.9803 8.76968C1.5188 8.53889 1.36498 7.96197 1.63419 7.53889Z" fill="white" stroke="white" stroke-width="0.5"/>
<path d="M3.40335 20.116C3.86485 19.6545 3.98024 18.9237 3.63414 18.3083C3.36493 17.8468 2.86493 17.5391 2.32643 17.5391C2.05722 17.5391 1.82643 17.616 1.59564 17.7314C1.24945 17.9237 0.980244 18.2314 0.903348 18.616C0.78795 19.0006 0.864854 19.3852 1.05716 19.7698C1.32636 20.2313 1.82636 20.539 2.36486 20.539C2.55717 20.539 2.74947 20.5005 2.94176 20.4236C4.44176 22.3851 6.51864 23.8467 8.90322 24.5005L9.05703 23.962C6.8264 23.3467 4.8264 21.962 3.40328 20.1159L3.40335 20.116ZM1.55724 19.5006C1.44185 19.2698 1.40344 19.0391 1.48034 18.8083C1.55724 18.5775 1.71113 18.3852 1.90344 18.2698C2.05725 18.1929 2.21115 18.1544 2.36494 18.1544C2.71113 18.1544 3.01876 18.3467 3.17265 18.6159C3.40344 19.039 3.24956 19.6159 2.82647 19.8851C2.40336 20.116 1.82645 19.9237 1.55724 19.5006Z" fill="white" stroke="white" stroke-width="0.5"/>
<path d="M19.6725 21.1914C17.9802 22.8837 15.7879 23.9606 13.4417 24.2683C13.2878 23.6529 12.7109 23.1529 12.0186 23.1529C11.2108 23.1529 10.5186 23.8067 10.5186 24.6144C10.5186 24.999 10.6724 25.3836 10.9417 25.6913C11.2109 25.9605 11.5955 26.1528 11.9802 26.1528C12.7494 26.1528 13.3648 25.5759 13.4417 24.8451C15.9417 24.5374 18.2494 23.3836 20.0571 21.5759L19.6725 21.1914ZM12.0187 25.6145C11.7495 25.6145 11.5187 25.4991 11.3649 25.3453C11.2111 25.153 11.0957 24.9222 11.0957 24.6915C11.0957 24.1915 11.5188 23.7684 12.0188 23.7684C12.5188 23.7684 12.9419 24.1915 12.9419 24.6915C12.9418 25.1914 12.5187 25.6145 12.0187 25.6145Z" fill="white"/>
<path d="M12.0187 25.6145V25.9222M12.0187 25.6145C11.7495 25.6145 11.5187 25.4991 11.3649 25.3453C11.2111 25.153 11.0957 24.9222 11.0957 24.6915C11.0957 24.1915 11.5188 23.7684 12.0188 23.7684C12.5188 23.7684 12.9419 24.1915 12.9419 24.6915C12.9418 25.1914 12.5187 25.6145 12.0187 25.6145ZM19.6725 21.1914C17.9802 22.8837 15.7879 23.9606 13.4417 24.2683C13.2878 23.6529 12.7109 23.1529 12.0186 23.1529C11.2108 23.1529 10.5186 23.8067 10.5186 24.6144C10.5186 24.999 10.6724 25.3836 10.9417 25.6913C11.2109 25.9605 11.5955 26.1528 11.9802 26.1528C12.7494 26.1528 13.3648 25.5759 13.4417 24.8451C15.9417 24.5374 18.2494 23.3836 20.0571 21.5759L19.6725 21.1914Z" stroke="white" stroke-width="0.5"/>
<path d="M20.6729 7.11593C20.4806 7.30823 20.3652 7.50053 20.2883 7.76974C20.1729 8.15434 20.2114 8.53895 20.4037 8.92355C20.6729 9.38505 21.1729 9.69276 21.7114 9.69276C21.9806 9.69276 22.2114 9.61585 22.4422 9.50046C22.7884 9.30815 23.0576 9.00046 23.1345 8.61585C23.2499 8.23125 23.2114 7.84664 23.0191 7.46204C22.7499 7.00054 22.2499 6.69283 21.7114 6.69283C21.5191 6.69283 21.3268 6.73133 21.1729 6.80823C19.596 4.69281 17.3267 3.15448 14.7883 2.53906L14.6345 3.11596C17.0576 3.69285 19.2114 5.11596 20.6729 7.11596L20.6729 7.11593ZM22.5191 7.73124C22.6345 7.96203 22.6729 8.19274 22.596 8.42353C22.5191 8.65432 22.3652 8.84663 22.1729 8.96203C21.7498 9.19282 21.1729 9.03893 20.9421 8.61584C20.8267 8.38505 20.7883 8.15434 20.8652 7.92355C20.9421 7.69276 21.096 7.50045 21.2883 7.38505C21.4421 7.30815 21.596 7.26965 21.7498 7.26965C22.0576 7.26973 22.3653 7.46204 22.5191 7.73124Z" fill="white" stroke="white" stroke-width="0.5"/>
<path d="M22.4813 18.076C23.0967 16.6529 23.4044 15.1529 23.4044 13.576C23.4044 12.6145 23.289 11.6145 23.0198 10.6914L22.4429 10.8452C22.6737 11.7298 22.7891 12.6529 22.7891 13.576C22.7891 15.0375 22.4814 16.4606 21.9045 17.8069C21.7891 17.7684 21.6353 17.7684 21.4814 17.7684C20.9429 17.7684 20.4814 18.0376 20.2122 18.4992C20.0199 18.8454 19.943 19.23 20.0584 19.6146C20.1738 19.9992 20.4046 20.3454 20.7507 20.5377C20.9815 20.6915 21.2507 20.73 21.5199 20.73C22.0584 20.73 22.5199 20.4608 22.7891 19.9992C22.9814 19.653 23.0583 19.2684 22.9429 18.8838C22.9429 18.5761 22.7506 18.3069 22.4813 18.0761V18.076ZM22.3275 19.7298C22.0967 20.1529 21.4813 20.3067 21.0583 20.0375C20.6352 19.7683 20.4814 19.2298 20.7506 18.7683C20.9044 18.4991 21.2121 18.3068 21.5583 18.3068C21.7121 18.3068 21.866 18.3453 22.0198 18.4222C22.2121 18.5376 22.366 18.7299 22.4429 18.9991C22.5198 19.2683 22.4813 19.4991 22.3275 19.7298Z" fill="white" stroke="white" stroke-width="0.5"/>
<path d="M12.0188 8.22982C11.5573 8.22982 11.0957 8.34522 10.7111 8.57601C10.3265 8.34522 9.90343 8.19141 9.48035 8.19141C8.24956 8.19141 7.21118 9.19141 7.21118 10.4606C7.21118 11.7298 8.21118 12.7297 9.48035 12.7297C9.74956 12.7297 9.98035 12.6912 10.2111 12.6143C10.6726 13.0758 11.3265 13.3451 12.0188 13.3451C12.7112 13.3451 13.365 13.0759 13.8266 12.6143C14.0573 12.6912 14.3266 12.7297 14.5573 12.7297C15.7881 12.7297 16.8265 11.7297 16.8265 10.4606C16.8265 9.19136 15.8265 8.19141 14.5573 8.19141C14.0958 8.19141 13.6727 8.34521 13.3266 8.57601C12.942 8.34522 12.4804 8.22982 12.0188 8.22982ZM7.78802 10.4607C7.78802 9.53755 8.55722 8.76836 9.48031 8.76836C9.74952 8.76836 10.0188 8.84527 10.2495 8.96067C9.78802 9.42217 9.48031 10.0761 9.48031 10.7684C9.48031 11.2684 9.63411 11.6915 9.86491 12.0761C9.74951 12.1146 9.63412 12.1146 9.48031 12.1146C8.51881 12.153 7.78802 11.3838 7.78802 10.4607V10.4607ZM12.0188 12.7684C10.942 12.7684 10.0188 11.8838 10.0188 10.7684C10.0188 9.69147 10.9035 8.76836 12.0188 8.76836C13.0957 8.76836 14.0188 9.65297 14.0188 10.7684C14.0188 11.8838 13.0957 12.7684 12.0188 12.7684ZM14.5574 8.76836C15.4805 8.76836 16.2497 9.53757 16.2497 10.4607C16.2497 11.3838 15.4805 12.1529 14.5574 12.1529C14.442 12.1529 14.3266 12.1529 14.1728 12.1145C14.4036 11.7298 14.5574 11.2683 14.5574 10.8067C14.5574 10.076 14.2497 9.46056 13.7882 8.99904C14.0574 8.84523 14.2881 8.76833 14.5574 8.76833V8.76836Z" fill="white" stroke="white" stroke-width="0.5"/>
<path d="M19.365 17.3076C19.3265 16.4614 19.2496 15.6922 19.1342 15.0767V15.0382C19.0957 14.7305 18.9804 14.4228 18.8265 14.0767V14.0382C18.6727 13.769 18.4034 13.4997 18.1342 13.3459C18.0573 13.3074 17.9419 13.2305 17.8265 13.1921L16.1726 12.6152L15.5188 13.8844L13.9034 13.3075L12.288 16.3075H11.7495L10.1341 13.3075L8.51873 13.8844L7.865 12.6152L6.2496 13.1921C6.1342 13.2306 6.01881 13.269 5.94189 13.3459C5.63418 13.4997 5.40339 13.769 5.2496 14.0382L5.21111 14.1151C5.01881 14.4228 4.9419 14.7689 4.9034 15.0766V15.1151C4.8265 15.7305 4.74959 16.4997 4.67261 17.346V17.6537H6.63411C6.59561 17.9614 6.59561 18.3075 6.5572 18.6922V18.9999H17.5572V18.6922C17.5187 18.3076 17.5187 17.9614 17.4803 17.6537H19.4418L19.365 17.3076ZM5.2496 17.0383C5.28809 16.3075 5.365 15.6921 5.4419 15.1537V15.0768C5.4804 14.846 5.5573 14.6153 5.71111 14.3075C5.82651 14.1152 5.98032 13.9614 6.21111 13.8075C6.28802 13.769 6.36492 13.7306 6.4419 13.6921L7.59572 13.269L8.01882 14.0767C7.67263 14.2691 7.36501 14.5382 7.17263 14.8845C6.94184 15.3076 6.78803 15.7306 6.78803 16.1537C6.78803 16.2306 6.71112 16.5383 6.67263 16.9999H5.24961L5.2496 17.0383ZM7.13421 18.3844C7.21111 16.9998 7.365 16.3076 7.365 16.3076V16.2306C7.365 15.9229 7.4804 15.5768 7.67271 15.2306C7.86501 14.9229 8.17271 14.6538 8.51889 14.5384L9.86508 14.0384L11.4036 16.9229H12.5959L14.1344 14.0384L15.4806 14.4999C15.596 14.5383 15.6729 14.5768 15.7498 14.6153C15.9806 14.7691 16.1729 14.923 16.3267 15.1921V15.2306C16.4805 15.5384 16.5959 15.8075 16.6344 16.0768V16.1537C16.7113 16.7691 16.7882 17.5383 16.8652 18.3846L7.13421 18.3844ZM17.365 17.0383C17.3265 16.6921 17.2881 16.3844 17.2496 16.0768V16.0383C17.2111 15.6921 17.0958 15.3075 16.865 14.9614V14.9229C16.6727 14.6152 16.4035 14.346 16.0573 14.1537L16.4804 13.346L17.5958 13.7691C17.6727 13.8076 17.7496 13.846 17.8266 13.8845C18.0189 13.9999 18.1728 14.1537 18.3266 14.346V14.3845C18.4804 14.6537 18.5574 14.8845 18.5958 15.1152V15.1922C18.6727 15.7307 18.7496 16.346 18.7881 17.0768H17.365L17.365 17.0383Z" fill="white" stroke="white" stroke-width="0.5"/>
</svg>
