<svg width="31" height="31" viewBox="0 0 31 31" fill="none" xmlns="http://www.w3.org/2000/svg">
<path d="M12.0254 26.0538V22.2202C12.0253 21.2488 12.8153 20.4596 13.7937 20.4534H17.3865C18.3693 20.4534 19.166 21.2445 19.166 22.2202V26.0427C19.166 26.8853 19.8507 27.57 20.6994 27.5762H23.1505C24.2952 27.5791 25.3941 27.1297 26.2047 26.3271C27.0152 25.5244 27.4707 24.4346 27.4707 23.2981V12.4085C27.4707 11.4904 27.0608 10.6196 26.3515 10.0305L18.0244 3.41901C16.5688 2.26258 14.4899 2.29993 13.0774 3.5079L4.92947 10.0305C4.18663 10.6022 3.74264 11.4756 3.7207 12.4085V23.287C3.7207 25.6558 5.65493 27.5762 8.04092 27.5762H10.4361C10.8447 27.5791 11.2376 27.42 11.5275 27.1342C11.8175 26.8484 11.9806 26.4595 11.9806 26.0538H12.0254Z" fill="white"/>
</svg>
