<svg width="28" height="25" viewBox="0 0 28 25" fill="none" xmlns="http://www.w3.org/2000/svg">
<g clip-path="url(#clip0_674_509)">
<path fill-rule="evenodd" clip-rule="evenodd" d="M20.2338 8.8945C19.5123 11.8926 15.54 18.1701 15.54 18.1701C15.54 18.1701 14.8178 19.2779 14.0956 19.2779C13.3733 19.2779 12.6511 18.1701 12.6511 18.1701C12.6511 18.1701 8.67889 11.8926 7.95787 8.8945C7.72712 8.21296 7.5957 7.48428 7.5957 6.72292C7.5957 3.05213 10.5059 0.0761719 14.0957 0.0761719C17.6855 0.0761719 20.5957 3.05204 20.5957 6.72292C20.5957 7.48428 20.4646 8.21296 20.2339 8.8945H20.2338ZM14.0956 4.13807C12.6995 4.13807 11.5678 5.29538 11.5678 6.72292C11.5678 8.15047 12.6995 9.30777 14.0956 9.30777C15.4916 9.30777 16.6233 8.15047 16.6233 6.72292C16.6233 5.29538 15.4916 4.13807 14.0956 4.13807ZM14.0956 20.3878C17.0869 20.3878 19.5122 21.2131 19.5122 22.232C19.5122 23.2505 17.0869 24.0762 14.0956 24.0762C11.1042 24.0762 8.67889 23.2505 8.67889 22.232C8.67889 21.2132 11.1042 20.3878 14.0956 20.3878Z" fill="white"/>
</g>
<defs>
<clipPath id="clip0_674_509">
<rect width="27" height="24" fill="white" transform="translate(0.595703 0.0761719)"/>
</clipPath>
</defs>
</svg>
