<svg width="31" height="31" viewBox="0 0 31 31" fill="none" xmlns="http://www.w3.org/2000/svg">
<path d="M9.11616 22.0841C11.8282 21.0221 14.5402 19.9541 17.2522 18.8921C17.6002 18.7541 17.9541 18.6221 18.2962 18.4841C18.7162 18.3161 18.8302 17.7822 18.9863 17.3921C19.6162 15.8021 20.2403 14.2121 20.8702 12.6221C21.3683 11.3622 21.8662 10.1021 22.3643 8.84211C22.5263 8.43411 22.0343 7.94806 21.6263 8.10411C18.9083 9.16006 16.1903 10.2161 13.4723 11.2721C13.1123 11.4101 12.7523 11.5481 12.3923 11.6921C11.9723 11.8601 11.8583 12.3941 11.7023 12.7902C11.0903 14.3622 10.4782 15.9402 9.86623 17.5122C9.36818 18.7902 8.87023 20.0742 8.37218 21.3522C8.25216 21.6522 8.50421 22.0121 8.79221 22.0902C9.13421 22.1862 9.41018 21.9762 9.53021 21.6702C10.5743 18.9762 11.6243 16.2882 12.6682 13.5942C12.8182 13.2041 12.9682 12.8201 13.1182 12.4302C12.9802 12.5682 12.8362 12.7122 12.6982 12.8502C15.3922 11.8062 18.0802 10.7562 20.7742 9.71221C21.1642 9.56221 21.5482 9.41221 21.9382 9.26221C21.6922 9.01621 21.4462 8.77021 21.2002 8.52421C20.1382 11.2122 19.0761 13.9002 18.0142 16.5882C17.8642 16.9722 17.7082 17.3622 17.5582 17.7462L17.9782 17.3262C15.2902 18.3821 12.6022 19.4382 9.91423 20.4882C9.53621 20.6382 9.16423 20.7822 8.78621 20.9322C8.48621 21.0523 8.27626 21.3342 8.36618 21.6702C8.45612 21.9521 8.81011 22.1981 9.11616 22.0841Z" fill="white"/>
<path d="M27.8067 15.0766C27.8007 17.6626 26.9967 20.1766 25.4967 22.2886C24.0687 24.3047 21.9927 25.8886 19.6707 26.7286C17.2047 27.6227 14.4927 27.7246 11.9727 26.9987C9.54277 26.3027 7.38274 24.8567 5.78074 22.9127C2.48674 18.9167 2.10874 13.0787 4.78474 8.65667C6.08669 6.50862 8.03074 4.79867 10.3167 3.75467C12.6568 2.68669 15.3687 2.39872 17.8887 2.91462C20.3607 3.42457 22.6287 4.67859 24.3747 6.49662C26.1267 8.32064 27.2727 10.6606 27.6747 13.1566C27.7647 13.7926 27.8067 14.4346 27.8067 15.0766C27.8067 15.8507 29.0067 15.8507 29.0067 15.0766C29.0007 12.2806 28.1367 9.50864 26.5107 7.22864C24.9087 4.97269 22.6647 3.25064 20.0667 2.29064C17.4087 1.30667 14.4207 1.21067 11.6967 1.97864C9.06868 2.72269 6.66868 4.27669 4.93468 6.38864C3.14667 8.56062 2.06067 11.2246 1.83867 14.0266C1.61667 16.8286 2.29462 19.6966 3.74667 22.1026C5.15068 24.4246 7.26868 26.3326 9.74068 27.4486C12.3627 28.6366 15.2967 28.9727 18.1167 28.4086C20.8047 27.8746 23.3127 26.4766 25.2087 24.5026C27.1106 22.5166 28.4067 19.9546 28.8267 17.2306C28.9347 16.5166 29.0007 15.7966 29.0007 15.0766C29.0127 14.3026 27.8127 14.3026 27.8066 15.0766L27.8067 15.0766Z" fill="white"/>
<path d="M15.9263 15.0769C15.9263 15.3685 15.69 15.6049 15.3984 15.6049C15.1068 15.6049 14.8704 15.3685 14.8704 15.0769C14.8704 14.7853 15.1068 14.5488 15.3984 14.5488C15.69 14.5488 15.9263 14.7853 15.9263 15.0769Z" fill="white"/>
<path d="M15.3263 15.0772C15.3322 15.0112 15.3442 15.0412 15.3203 15.0832C15.3263 15.0712 15.3923 14.9752 15.3443 15.0232C15.3024 15.0713 15.3684 15.0112 15.3804 15.0053C15.4224 14.9812 15.3024 15.0053 15.3924 15.0053C15.4584 15.0053 15.4284 15.0232 15.3864 14.9993C15.4044 15.0113 15.4944 15.0773 15.4464 15.0233C15.4044 14.9813 15.4584 15.0413 15.4644 15.0594C15.4884 15.1134 15.4644 14.9514 15.4644 15.0714C15.4644 15.1374 15.4464 15.1074 15.4703 15.0654C15.4523 15.0895 15.4403 15.1194 15.4223 15.1435C15.4763 15.0534 15.4523 15.1435 15.4043 15.1435C15.3203 15.1494 15.4943 15.1375 15.4103 15.1435C15.3383 15.1435 15.3322 15.1194 15.3923 15.1555C15.3683 15.1375 15.3383 15.1255 15.3143 15.1074C15.3742 15.1435 15.3442 15.1555 15.3143 15.0895C15.3023 15.0292 15.3323 15.2032 15.3263 15.0772C15.3442 15.4013 15.5903 15.6772 15.9263 15.6772C16.2383 15.6772 16.5443 15.4013 16.5263 15.0772C16.4963 14.4652 16.0343 13.9492 15.3982 13.9492C14.7803 13.9492 14.2822 14.4652 14.2702 15.0772C14.2582 15.6832 14.7742 16.1812 15.3683 16.2053C16.0163 16.2293 16.4903 15.6953 16.5263 15.0772C16.5442 14.7532 16.2383 14.4772 15.9263 14.4772C15.5903 14.4772 15.3444 14.7532 15.3263 15.0772Z" fill="white"/>
</svg>
